<svg xmlns="http://www.w3.org/2000/svg" width="1200" height="700" viewBox="0 0 1200 700">
<defs>
<linearGradient id="bg" x1="0" x2="1"><stop stop-color="#1f2954"/><stop offset="1" stop-color="#091223"/></linearGradient>
<linearGradient id="g1" x1="0" x2="1"><stop stop-color="#ffc857"/><stop offset="1" stop-color="#ff5fd2"/></linearGradient>
<linearGradient id="g2" x1="0" x2="1"><stop stop-color="#43d9ff"/><stop offset="1" stop-color="#8d7dff"/></linearGradient>
</defs>
<rect width="1200" height="700" rx="42" fill="url(#bg)"/>
<circle cx="950" cy="130" r="110" fill="#ffffff12"/>
<circle cx="1040" cy="510" r="80" fill="#ffffff10"/>
<rect x="74" y="72" width="420" height="556" rx="30" fill="#ffffff08" stroke="#ffffff22"/>
<rect x="530" y="120" width="580" height="160" rx="28" fill="#ffffff0a" stroke="#ffffff20"/>
<rect x="530" y="312" width="270" height="220" rx="28" fill="#ffffff0a" stroke="#ffffff20"/>
<rect x="840" y="312" width="270" height="220" rx="28" fill="#ffffff0a" stroke="#ffffff20"/>
<rect x="110" y="120" width="350" height="24" rx="12" fill="#ffffff18"/>
<rect x="110" y="168" width="210" height="20" rx="10" fill="#ffffff14"/>
<rect x="110" y="224" width="300" height="184" rx="26" fill="url(#g1)"/>
<rect x="110" y="438" width="300" height="130" rx="24" fill="url(#g2)"/>
<path d="M586 218c76-76 157-99 255-74 89 23 153 77 219 53" fill="none" stroke="url(#g2)" stroke-width="14" stroke-linecap="round"/>
<circle cx="586" cy="218" r="10" fill="#43d9ff"/><circle cx="1060" cy="197" r="10" fill="#ffc857"/>
<text x="112" y="280" font-family="Inter,Arial" font-size="44" font-weight="900" fill="#151104">START</text>
<text x="112" y="328" font-family="Inter,Arial" font-size="22" font-weight="700" fill="#151104">bez wkładu • pod własnym logo</text>
<text x="560" y="410" font-family="Inter,Arial" font-size="34" font-weight="900" fill="#fff">Marża auto</text>
<text x="870" y="410" font-family="Inter,Arial" font-size="34" font-weight="900" fill="#fff">Reklamy</text></svg>